HIERARCHY
ROOT Hips
{
  OFFSET 5.84602e-005 68.8428 3.50346
  CHANNELS 6 Xposition Yposition Zposition Zrotation Xrotation Yrotation
  JOINT Spine
  {
    OFFSET 0 8.597 -4.6522
    CHANNELS 3 Zrotation Xrotation Yrotation
    JOINT Spine1
    {
      OFFSET 0 7.8454 0.4098
      CHANNELS 3 Zrotation Xrotation Yrotation
      JOINT Spine2
      {
        OFFSET 0 9.7078 -2.1609
        CHANNELS 3 Zrotation Xrotation Yrotation
        JOINT Neck
        {
          OFFSET 0 21.8761 -0.4549
          CHANNELS 3 Zrotation Xrotation Yrotation
          JOINT Head
          {
            OFFSET 0 12.3537 3.3602
            CHANNELS 3 Zrotation Xrotation Yrotation
            End Site
            {
              OFFSET 0.0001 18.9506 0.5657
            }
          }
        }
        JOINT LeftShoulder
        {
          OFFSET 2.2086 21.1115 7.2329
          CHANNELS 3 Zrotation Xrotation Yrotation
          JOINT LeftArm
          {
            OFFSET 13.1193 3.0282 -4.8998
            CHANNELS 3 Zrotation Xrotation Yrotation
            JOINT LeftForeArm
            {
              OFFSET 27.4081 -0.0973053 -0.2375
              CHANNELS 3 Zrotation Xrotation Yrotation
              JOINT LeftHand
              {
                OFFSET 22.8641 0.0662994 -0.1369
                CHANNELS 3 Zrotation Xrotation Yrotation
                JOINT LeftHandIndex1
                {
                  OFFSET 8.8614 0.775009 2.4612
                  CHANNELS 3 Zrotation Xrotation Yrotation
                  JOINT LeftHandIndex2
                  {
                    OFFSET 3.3146 -0.808304 0.5841
                    CHANNELS 3 Zrotation Xrotation Yrotation
                    JOINT LeftHandIndex3
                    {
                      OFFSET 2.2628 -0.552002 0.3989
                      CHANNELS 3 Zrotation Xrotation Yrotation
                      End Site
                      {
                        OFFSET 1.6102 -0.4807 0.2612
                      }
                    }
                  }
                }
                JOINT LeftHandMiddle1
                {
                  OFFSET 8.9937 0.895004 0.2143
                  CHANNELS 3 Zrotation Xrotation Yrotation
                  JOINT LeftHandMiddle2
                  {
                    OFFSET 4.0984 0.0113983 -0.0242
                    CHANNELS 3 Zrotation Xrotation Yrotation
                    JOINT LeftHandMiddle3
                    {
                      OFFSET 2.2716 0.00689697 -0.0138001
                      CHANNELS 3 Zrotation Xrotation Yrotation
                      End Site
                      {
                        OFFSET 2.0404 -0.1441 0.0027
                      }
                    }
                  }
                }
                JOINT LeftHandRing1
                {
                  OFFSET 8.5234 0.597198 -2.0164
                  CHANNELS 3 Zrotation Xrotation Yrotation
                  JOINT LeftHandRing2
                  {
                    OFFSET 3.7188 -0.188293 -0.2328
                    CHANNELS 3 Zrotation Xrotation Yrotation
                    JOINT LeftHandRing3
                    {
                      OFFSET 2.1191 -0.106598 -0.1332
                      CHANNELS 3 Zrotation Xrotation Yrotation
                      End Site
                      {
                        OFFSET 1.8737 -0.2304 -0.0886
                      }
                    }
                  }
                }
                JOINT LeftHandPinky1
                {
                  OFFSET 7.9094 -0.601089 -3.4825
                  CHANNELS 3 Zrotation Xrotation Yrotation
                  JOINT LeftHandPinky2
                  {
                    OFFSET 2.2874 -0.477005 -0.6314
                    CHANNELS 3 Zrotation Xrotation Yrotation
                    JOINT LeftHandPinky3
                    {
                      OFFSET 1.6774 -0.349396 -0.4633
                      CHANNELS 3 Zrotation Xrotation Yrotation
                      End Site
                      {
                        OFFSET 1.4888 -0.4091 -0.3416
                      }
                    }
                  }
                }
                JOINT LeftHandThumb1
                {
                  OFFSET 1.833 -1.3875 1.3896
                  CHANNELS 3 Zrotation Xrotation Yrotation
                  JOINT LeftHandThumb2
                  {
                    OFFSET 3.4129 -1.121 2.5732
                    CHANNELS 3 Zrotation Xrotation Yrotation
                    JOINT LeftHandThumb3
                    {
                      OFFSET 2.2474 -0.804199 1.6192
                      CHANNELS 3 Zrotation Xrotation Yrotation
                      End Site
                      {
                        OFFSET 1.6527 -0.5689 1.1317
                      }
                    }
                  }
                }
              }
            }
          }
        }
        JOINT RightShoulder
        {
          OFFSET -2.2086 21.1115 7.2329
          CHANNELS 3 Zrotation Xrotation Yrotation
          JOINT RightArm
          {
            OFFSET -13.1216 3.0287 -4.9007
            CHANNELS 3 Zrotation Xrotation Yrotation
            JOINT RightForeArm
            {
              OFFSET -27.4081 -0.0973053 -0.2375
              CHANNELS 3 Zrotation Xrotation Yrotation
              JOINT RightHand
              {
                OFFSET -22.8641 0.0664063 -0.1369
                CHANNELS 3 Zrotation Xrotation Yrotation
                JOINT RightHandIndex1
                {
                  OFFSET -8.8614 0.774994 2.4612
                  CHANNELS 3 Zrotation Xrotation Yrotation
                  JOINT RightHandIndex2
                  {
                    OFFSET -3.3146 -0.808304 0.5841
                    CHANNELS 3 Zrotation Xrotation Yrotation
                    JOINT RightHandIndex3
                    {
                      OFFSET -2.2628 -0.552002 0.3989
                      CHANNELS 3 Zrotation Xrotation Yrotation
                      End Site
                      {
                        OFFSET -1.6102 -0.4807 0.2612
                      }
                    }
                  }
                }
                JOINT RightHandMiddle1
                {
                  OFFSET -8.9937 0.894989 0.2143
                  CHANNELS 3 Zrotation Xrotation Yrotation
                  JOINT RightHandMiddle2
                  {
                    OFFSET -4.0984 0.0113983 -0.0242
                    CHANNELS 3 Zrotation Xrotation Yrotation
                    JOINT RightHandMiddle3
                    {
                      OFFSET -2.2716 0.00691223 -0.0138001
                      CHANNELS 3 Zrotation Xrotation Yrotation
                      End Site
                      {
                        OFFSET -2.0404 -0.1441 0.0027
                      }
                    }
                  }
                }
                JOINT RightHandRing1
                {
                  OFFSET -8.5234 0.597198 -2.0164
                  CHANNELS 3 Zrotation Xrotation Yrotation
                  JOINT RightHandRing2
                  {
                    OFFSET -3.7188 -0.188309 -0.2328
                    CHANNELS 3 Zrotation Xrotation Yrotation
                    JOINT RightHandRing3
                    {
                      OFFSET -2.1191 -0.106598 -0.1332
                      CHANNELS 3 Zrotation Xrotation Yrotation
                      End Site
                      {
                        OFFSET -1.8737 -0.2304 -0.0886
                      }
                    }
                  }
                }
                JOINT RightHandPinky1
                {
                  OFFSET -7.9094 -0.601105 -3.4825
                  CHANNELS 3 Zrotation Xrotation Yrotation
                  JOINT RightHandPinky2
                  {
                    OFFSET -2.2874 -0.477005 -0.6314
                    CHANNELS 3 Zrotation Xrotation Yrotation
                    JOINT RightHandPinky3
                    {
                      OFFSET -1.6774 -0.349396 -0.4633
                      CHANNELS 3 Zrotation Xrotation Yrotation
                      End Site
                      {
                        OFFSET -1.4888 -0.4091 -0.3416
                      }
                    }
                  }
                }
                JOINT RightHandThumb1
                {
                  OFFSET -1.833 -1.38751 1.3896
                  CHANNELS 3 Zrotation Xrotation Yrotation
                  JOINT RightHandThumb2
                  {
                    OFFSET -3.41299 -1.12099 2.5732
                    CHANNELS 3 Zrotation Xrotation Yrotation
                    JOINT RightHandThumb3
                    {
                      OFFSET -2.24741 -0.804108 1.6192
                      CHANNELS 3 Zrotation Xrotation Yrotation
                      End Site
                      {
                        OFFSET -1.6527 -0.5689 1.1317
                      }
                    }
                  }
                }
              }
            }
          }
        }
      }
    }
  }
  JOINT RightUpLeg
  {
    OFFSET -9.1966 3.8861 -0.7581
    CHANNELS 3 Zrotation Xrotation Yrotation
    JOINT RightLeg
    {
      OFFSET -0.7359 -41.0265 0
      CHANNELS 3 Zrotation Xrotation Yrotation
      JOINT RightFoot
      {
        OFFSET 0 -40.2855 0
        CHANNELS 3 Zrotation Xrotation Yrotation
        JOINT RightToeBase
        {
          OFFSET 0 -5.6122 11.7359
          CHANNELS 3 Zrotation Xrotation Yrotation
          End Site
          {
            OFFSET 0 0 7.8731
          }
        }
      }
    }
  }
  JOINT LeftUpLeg
  {
    OFFSET 9.1965 3.8864 -0.7581
    CHANNELS 3 Zrotation Xrotation Yrotation
    JOINT LeftLeg
    {
      OFFSET 0.7359 -41.0268 0
      CHANNELS 3 Zrotation Xrotation Yrotation
      JOINT LeftFoot
      {
        OFFSET 0 -40.2855 0
        CHANNELS 3 Zrotation Xrotation Yrotation
        JOINT LeftToeBase
        {
          OFFSET 0 -5.6122 11.7359
          CHANNELS 3 Zrotation Xrotation Yrotation
          End Site
          {
            OFFSET 0 0 7.8731
          }
        }
      }
    }
  }
}
MOTION
Frames:	4
Frame Time:	0.0333333
-3.60062 1.59569 6.29685 -72.0441 -89.9972 -161.043 0.133229 -0.152329 -0.27946 0.265717 -0.30531 -0.558604 0.265703 -0.305297 -0.55859 -22.1042 -0.0521921 -0.0131263 -18.3208 -1.36231 -16.2561 -30.2898 -8.99802 -1.75536 -33.133 9.81909 -14.1451 -7.79044 -1.92071 -97.5646 -16.845 -19.3044 -4.23689 4.35296e-008 -2.0197e-007 -5.33182e-008 8.70592e-008 -4.0394e-007 -1.06636e-007 4.35296e-008 -2.0197e-007 -5.33182e-008 4.35296e-008 -2.0197e-007 -5.33182e-008 -0.014634 -8.90887e-005 5.34785e-007 4.35289e-008 -2.01963e-007 -5.3344e-008 4.35296e-008 -2.0197e-007 -5.33182e-008 -0.0187943 -0.00117763 5.8582e-005 4.35281e-008 -2.01961e-007 -5.33518e-008 4.35296e-008 -2.0197e-007 -5.33182e-008 -0.0122665 -0.00324814 0.000675862 2.24346e-007 1.70695e-008 -4.77891e-007 4.35296e-008 -2.0197e-007 -5.33182e-008 8.70592e-008 -4.0394e-007 -1.06636e-007 4.35296e-008 -2.0197e-007 -5.33182e-008 -25.7003 2.80444 -14.7287 83.5378 -0.857535 116.448 -10.6086 -11.6911 46.5024 -21.7803 -12.8443 5.88697 -3.04572e-007 8.96877e-007 3.21822e-008 1.42182e-007 1.34868e-006 1.10181e-007 -3.04572e-007 8.96876e-007 3.21822e-008 -3.04572e-007 8.96877e-007 3.21822e-008 0.0150004 -9.12132e-005 8.91533e-007 7.91439e-008 5.45441e-007 -8.14018e-009 -3.04572e-007 8.96877e-007 3.21822e-008 0.0189963 -0.00118986 -6.23135e-005 -3.04591e-007 8.96883e-007 3.20367e-008 -3.04572e-007 8.96877e-007 3.21822e-008 0.0122716 -0.00324923 -0.000673027 7.89099e-008 5.45175e-007 -8.18632e-009 -3.04572e-007 8.96877e-007 3.21822e-008 1.42182e-007 1.34868e-006 1.10181e-007 -3.04572e-007 8.96876e-007 3.21822e-008 -1.07404 -4.31909 -1.7715 9.73541 59.233 -10.0973 -2.21437 15.9828 9.28514 2.57038e-007 -5.57635e-007 1.79404e-006 -18.9283 -31.1331 -7.73003 34.929 50.0314 -17.1371 -4.8698 2.54302 -17.3194 -1.55299e-006 1.70686e-006 -2.28072e-006 
-3.60062 1.59569 6.29685 -72.0441 -89.9972 -161.043 0.133215 -0.152343 -0.279406 0.265713 -0.305306 -0.558611 0.265714 -0.305309 -0.558595 -22.2772 -0.0474844 -0.0119316 -18.5662 -1.32552 -16.3579 -30.2898 -8.99802 -1.75535 -33.1635 9.96195 -14.0125 -7.85504 -1.90299 -97.3626 -16.8339 -19.2991 -4.35035 -4.3074e-008 2.02064e-007 5.33636e-008 -1.29222e-007 6.06192e-007 1.60091e-007 -4.30739e-008 2.02064e-007 5.33636e-008 -4.3074e-008 2.02064e-007 5.33636e-008 -0.0146034 -8.76712e-005 -3.18382e-006 -4.30733e-008 2.02057e-007 5.33894e-008 -4.3074e-008 2.02064e-007 5.33636e-008 -0.0187436 -0.0011747 5.89965e-005 -4.30725e-008 2.02055e-007 5.33971e-008 -4.3074e-008 2.02064e-007 5.33636e-008 -0.0122779 -0.00324908 0.000674669 -4.30707e-008 2.02059e-007 5.33865e-008 -4.3074e-008 2.02064e-007 5.33636e-008 -1.29222e-007 6.06192e-007 1.60091e-007 -4.30739e-008 2.02064e-007 5.33636e-008 -25.7003 2.80446 -14.7287 83.5379 -0.857542 116.448 -10.6086 -11.6911 46.5025 -21.7803 -12.8443 5.88698 -2.97836e-007 -3.01204e-007 -5.19989e-008 -1.04916e-006 1.43867e-007 -9.78149e-008 -1.48918e-007 -1.50602e-007 -2.59994e-008 -2.97836e-007 -3.01204e-007 -5.19989e-008 0.0149946 -9.2299e-005 2.05495e-007 2.34813e-007 -5.02051e-007 -6.61821e-008 -2.97836e-007 -3.01204e-007 -5.19989e-008 0.0189896 -0.00119065 -6.30738e-005 -1.48918e-007 -1.50607e-007 -2.59729e-008 -2.97836e-007 -3.01204e-007 -5.19989e-008 0.0122654 -0.00324634 -0.000678357 -1.48917e-007 -1.50606e-007 -2.59791e-008 -2.97836e-007 -3.01204e-007 -5.19989e-008 -1.04916e-006 1.43867e-007 -9.78149e-008 -1.48918e-007 -1.50602e-007 -2.59994e-008 -1.07405 -4.31907 -1.7715 9.73537 59.233 -10.0973 -2.21438 15.9828 9.28514 2.79994e-007 1.21218e-006 1.16372e-006 -18.9283 -31.1331 -7.73003 34.929 50.0314 -17.1371 -4.86978 2.54303 -17.3194 -1.06586e-006 -2.28072e-006 -1.70686e-006 
-3.60062 1.59569 6.29685 -71.8612 -89.9972 -160.86 0.133232 -0.152339 -0.279464 0.265714 -0.305299 -0.558594 0.265718 -0.305309 -0.558595 -22.45 -0.0429651 -0.0108198 -18.8113 -1.28833 -16.4594 -30.2898 -8.99802 -1.75536 -33.1943 10.1048 -13.8798 -7.91973 -1.88552 -97.1606 -16.8229 -19.2938 -4.46382 1.74672e-006 2.76615e-007 -2.53492e-007 -1.59028e-015 3.18055e-015 -0 1.78933e-006 7.44585e-008 -3.069e-007 1.74672e-006 2.76615e-007 -2.53492e-007 -0.0146135 -8.8343e-005 6.00188e-007 1.7902e-006 7.45029e-008 -3.06892e-007 1.74672e-006 2.76615e-007 -2.53492e-007 -0.0187586 -0.00117529 6.28312e-005 1.57177e-006 8.36058e-010 2.21989e-007 1.74672e-006 2.76615e-007 -2.53492e-007 -0.0122668 -0.00324686 0.000675817 1.79005e-006 7.46736e-008 -3.06983e-007 1.74672e-006 2.76615e-007 -2.53492e-007 -1.59028e-015 3.18055e-015 -0 1.78933e-006 7.44585e-008 -3.069e-007 -25.7003 2.80445 -14.7287 83.5379 -0.857535 116.448 -10.6086 -11.6911 46.5024 -21.7803 -12.8443 5.88698 1.48918e-007 1.50602e-007 2.59995e-008 -1.48918e-007 -1.50602e-007 -2.59995e-008 -1.48918e-007 -1.50602e-007 -2.59995e-008 1.48918e-007 1.50602e-007 2.59995e-008 0.0149861 -9.09145e-005 9.17146e-006 -1.48918e-007 -1.50605e-007 -2.59797e-008 1.48918e-007 1.50602e-007 2.59995e-008 0.0189906 -0.00118959 -6.28819e-005 -1.48917e-007 -1.50607e-007 -2.5973e-008 1.48918e-007 1.50602e-007 2.59995e-008 0.0122605 -0.00324532 -0.000678788 -1.48917e-007 -1.50606e-007 -2.59792e-008 1.48918e-007 1.50602e-007 2.59995e-008 -1.48918e-007 -1.50602e-007 -2.59995e-008 -1.48918e-007 -1.50602e-007 -2.59995e-008 -1.07405 -4.3191 -1.7715 9.7354 59.233 -10.0973 -2.21439 15.9828 9.28515 1.39997e-007 6.06088e-007 5.81862e-007 -18.9283 -31.1331 -7.73001 34.929 50.0313 -17.1371 -4.86979 2.54303 -17.3195 7.95139e-016 3.18055e-015 -6.55989e-015 
-3.60062 1.59569 6.29685 -71.8612 -89.9972 -160.86 0.133232 -0.152339 -0.279464 0.265714 -0.305299 -0.558594 0.265718 -0.305309 -0.558595 -22.6228 -0.0381848 -0.00969491 -19.0561 -1.25071 -16.5607 -30.2898 -8.99802 -1.75536 -33.2256 10.2475 -13.7469 -7.98448 -1.86825 -96.9585 -16.8118 -19.2885 -4.57729 1.78772e-006 8.48562e-008 -3.223e-007 -2.12988e-007 -1.01889e-007 5.545e-007 1.78772e-006 8.48562e-008 -3.22301e-007 1.78772e-006 8.48562e-008 -3.223e-007 -0.0146202 -8.77745e-005 -6.344e-007 1.57375e-006 -1.70683e-008 2.32196e-007 1.78772e-006 8.48562e-008 -3.223e-007 -0.0188036 -0.00117813 6.12594e-005 1.78883e-006 8.49781e-008 -3.22309e-007 1.78772e-006 8.48562e-008 -3.223e-007 -0.0123284 -0.00326355 0.000681584 1.57391e-006 -1.72857e-008 2.32198e-007 1.78772e-006 8.48562e-008 -3.223e-007 -2.12988e-007 -1.01889e-007 5.545e-007 1.78772e-006 8.48562e-008 -3.22301e-007 -25.7003 2.80445 -14.7287 83.5379 -0.857535 116.448 -10.6086 -11.6911 46.5024 -21.7803 -12.8443 5.88698 1.48918e-007 1.50602e-007 2.59995e-008 -1.48918e-007 -1.50602e-007 -2.59995e-008 -1.48918e-007 -1.50602e-007 -2.59995e-008 1.48918e-007 1.50602e-007 2.59995e-008 0.0149861 -9.09145e-005 9.17146e-006 -1.48918e-007 -1.50605e-007 -2.59797e-008 1.48918e-007 1.50602e-007 2.59995e-008 0.0189906 -0.00118959 -6.28819e-005 -1.48917e-007 -1.50607e-007 -2.5973e-008 1.48918e-007 1.50602e-007 2.59995e-008 0.0122605 -0.00324532 -0.000678788 -1.48917e-007 -1.50606e-007 -2.59792e-008 1.48918e-007 1.50602e-007 2.59995e-008 -1.48918e-007 -1.50602e-007 -2.59995e-008 -1.48918e-007 -1.50602e-007 -2.59995e-008 -1.07405 -4.3191 -1.7715 9.7354 59.233 -10.0973 -2.21439 15.9828 9.28515 1.39997e-007 6.06088e-007 5.81862e-007 -18.9283 -31.1331 -7.73001 34.929 50.0313 -17.1371 -4.86979 2.54303 -17.3195 7.95139e-016 3.18055e-015 -6.55989e-015 
